#!OML:ASF Y:\EmotionMaleHayes\Project 1\Capture day 1\Session 1\Male1.ASF
:FULLY-SPECIFIED
:DEGREES
1185
root 35.8481 16.8043 16.2769 283.712 79.154 273.446
lowerback 13.5163 5.29961 -0.91595
upperback 7.8828 7.3013 -1.46138
thorax 0.859148 3.83125 -1.90832
lowerneck -19.7209 10.1323 13.7128
upperneck 26.7279 15.3693 -14.5139
head 14.913 6.41058 -5.15061
rclavicle 4.77083e-014 3.18055e-015
rhumerus -20.9721 32.6352 -89.2879
rradius 91.7337
rwrist -8.32672
rhand -17.0116 -23.6076
rfingers 7.12502
rthumb 9.22411 -53.3858
lclavicle 4.77083e-014 3.18055e-015
lhumerus -84.316 -20.8887 114.174
lradius 58.3898
lwrist 7.25661
lhand -12.0184 -24.2664
lfingers 7.12502
lthumb 14.0393 5.23948
rfemur 7.38542 -4.37695 24.8393
rtibia 13.7843
rfoot -18.3198 1.22492
rtoes -9.7077
lfemur -32.7868 16.9218 -15.2598
ltibia 35.5606
lfoot -18.8722 18.1128
ltoes 23.3942
1186
root 35.9487 16.8238 16.2874 286.345 79.3591 275.938
lowerback 13.2648 5.49021 -1.84292
upperback 7.90181 7.45841 -1.71146
thorax 0.93984 3.88421 -1.65343
lowerneck -19.5194 10.3495 14.0185
upperneck 26.5975 15.7842 -14.9951
head 14.9823 6.57439 -5.31201
rclavicle -8.74653e-015 3.02153e-014
rhumerus -22.0354 32.7347 -90.0203
rradius 91.0817
rwrist -8.4066
rhand -16.0397 -24.0757
rfingers 7.12502
rthumb 10.1618 -53.8103
lclavicle -8.74653e-015 3.02153e-014
lhumerus -84.316 -20.8887 114.174
lradius 58.3898
lwrist 7.25661
lhand -12.0184 -24.2664
lfingers 7.12502
lthumb 14.0393 5.23948
rfemur 6.89363 -3.25126 24.7236
rtibia 14.4057
rfoot -18.0108 0.713767
rtoes -10.0837
lfemur -32.3821 17.0126 -15.3548
ltibia 35.3217
lfoot -19.0358 18.4183
ltoes 22.7165
1187
root 36.0509 16.8416 16.2881 287.499 79.6446 276.764
lowerback 13.0137 5.53526 -2.67384
upperback 7.73799 7.42152 -1.98544
thorax 0.838164 3.83957 -1.46469
lowerneck -19.454 10.5346 14.1372
upperneck 26.5418 16.162 -15.3307
head 15.0742 6.71307 -5.38674
rclavicle 3.65764e-014 -7.95139e-015
rhumerus -23.2641 32.8722 -90.7689
rradius 90.2469
rwrist -8.49529
rhand -15.5919 -24.3163
rfingers 7.12502
rthumb 10.5938 -54.0293
lclavicle 3.65764e-014 -7.95139e-015
lhumerus -80.5374 -20.6093 112.083
lradius 56.5787
lwrist 8.59955
lhand -14.4111 -20.9384
lfingers 7.12502
lthumb 11.7327 8.71307
rfemur 6.24453 -2.66679 24.4229
rtibia 14.8864
rfoot -17.7128 0.802476
rtoes -6.89094
lfemur -32.1962 16.8502 -15.6667
ltibia 35.0454
lfoot -19.3091 18.4603
ltoes 22.7988
1188
root 36.1559 16.858 16.2774 285.611 79.7555 274.564
lowerback 12.8537 5.42958 -2.76482
upperback 7.61155 7.27105 -2.25281
thorax 0.813895 3.76606 -1.66266
lowerneck -19.4004 10.5889 13.969
upperneck 26.4428 16.2527 -15.2255
head 15.0037 6.74835 -5.28867
rclavicle -8.50798e-014 3.33958e-014
rhumerus -24.4966 32.6399 -91.5026
rradius 89.2063
rwrist -8.3101
rhand -14.9954 -24.6066
rfingers 7.12502
rthumb 11.1692 -54.2893
lclavicle -8.50798e-014 3.33958e-014
lhumerus -79.1186 -20.6866 110.932
lradius 56.0214
lwrist 10.3853
lhand -16.5171 -22.854
lfingers 7.12502
lthumb 9.70124 6.90259
rfemur 5.68961 -2.93474 24.3021
rtibia 15.3226
rfoot -17.501 1.10762
rtoes -6.62626
lfemur -32.0578 16.3517 -15.8146
ltibia 34.9156
lfoot -19.6007 18.3759
ltoes 22.9321
1189
root 36.2624 16.8764 16.2744 284.12 79.7555 273.038
lowerback 12.9462 5.43205 -2.82044
upperback 7.52286 7.26103 -2.48367
thorax 0.696212 3.766 -1.88453
lowerneck -19.2788 10.5698 13.8635
upperneck 26.4034 16.2112 -15.0579
head 14.9172 6.7454 -5.21118
rclavicle -2.70347e-014 -3.18055e-015
rhumerus -25.7768 31.9983 -92.3073
rradius 88.1299
rwrist -8.62879
rhand -13.8209 -25.3196
rfingers 7.12502
rthumb 12.3018 -54.9377
lclavicle -2.70347e-014 -3.18055e-015
lhumerus -77.6394 -20.7488 109.753
lradius 55.9585
lwrist 12.7545
lhand -17.5491 -21.0359
lfingers 7.12502
lthumb 8.70546 8.76455
rfemur 5.50207 -3.1443 24.3127
rtibia 15.6756
rfoot -17.5443 1.03045
rtoes -10.3681
lfemur -31.5208 16.0205 -15.7014
ltibia 34.6242
lfoot -19.6078 18.5775
ltoes 21.9644
1190
root 36.3671 16.8999 16.2528 281.279 79.993 270.425
lowerback 13.3652 5.27884 -2.93569
upperback 7.50935 7.03534 -2.72163
thorax 0.475918 3.66192 -2.08431
lowerneck -19.1986 10.6749 13.8956
upperneck 26.2153 16.4287 -15.303
head 14.894 6.81995 -5.26413
rclavicle 3.4191e-014 7.95139e-015
rhumerus -26.9576 31.2856 -93.0921
rradius 86.9161
rwrist -9.37385
rhand -12.4137 -26.0367
rfingers 7.12502
rthumb 13.6583 -55.5686
lclavicle 3.4191e-014 7.95139e-015
lhumerus -75.9642 -20.5795 108.601
lradius 55.51
lwrist 14.9587
lhand -18.9908 -19.9672
lfingers 7.12502
lthumb 7.31406 9.88636
rfemur 5.74912 -3.60131 23.8719
rtibia 15.5195
rfoot -17.2431 1.32324
rtoes -10.9024
lfemur -30.5669 15.2851 -15.8807
ltibia 34.0924
lfoot -19.2545 18.7867
ltoes 19.7574
1191
root 36.4746 16.9184 16.2473 280.833 80.0546 269.789
lowerback 13.1476 5.26061 -3.29272
upperback 7.40802 6.97384 -2.88559
thorax 0.465251 3.62181 -2.03527
lowerneck -18.7414 10.8128 14.263
upperneck 25.783 16.7396 -15.9665
head 14.7922 6.94798 -5.53109
rclavicle 1.35174e-014 2.54444e-014
rhumerus -28.1011 30.7253 -93.8225
rradius 85.3249
rwrist -9.11486
rhand -11.3975 -26.4015
rfingers 7.12502
rthumb 14.6375 -55.8649
lclavicle 1.35174e-014 2.54444e-014
lhumerus -73.9211 -20.1656 107.076
lradius 55.0749
lwrist 18.2537
lhand -18.8908 -19.2044
lfingers 7.12502
lthumb 7.41052 10.6458
rfemur 5.36556 -3.45957 23.7766
rtibia 15.5034
rfoot -16.9755 1.46778
rtoes -10.3174
lfemur -30.146 15.0833 -15.9207
ltibia 33.7643
lfoot -20.0885 18.4712
ltoes 22.1496
1192
root 36.5763 16.9419 16.2477 281.944 80.5357 270.922
lowerback 13.1098 5.35351 -4.24809
upperback 7.36973 6.9956 -3.1355
thorax 0.375025 3.61231 -1.7764
lowerneck -18.4781 10.9518 14.3755
upperneck 25.4789 17.0426 -16.3756
head 14.7305 7.06336 -5.64726
rclavicle -4.21423e-014 2.22639e-014
rhumerus -29.0729 30.1142 -94.3935
rradius 83.8349
rwrist -9.64156
rhand -10.6981 -27.3812
rfingers 7.12502
rthumb 15.3113 -56.7944
lclavicle -4.21423e-014 2.22639e-014
lhumerus -71.8316 -19.5341 105.502
lradius 54.3825
lwrist 20.7397
lhand -20.5087 -20.1331
lfingers 7.12502
lthumb 5.84874 9.76618
rfemur 5.08355 -2.7547 23.2417
rtibia 15.4554
rfoot -16.7862 1.38138
rtoes -8.8516
lfemur -29.4866 14.9467 -16.318
ltibia 33.4299
lfoot -20.6179 18.4545
ltoes 22.9208
1193
root 36.6788 16.9543 16.23 280.605 80.6363 269.437
lowerback 12.8193 5.24137 -4.41395
upperback 7.38653 6.85684 -3.31319
thorax 0.552686 3.54206 -1.82026
lowerneck -18.3968 11.0966 14.3069
upperneck 25.1565 17.2932 -16.5719
head 14.6425 7.14958 -5.64697
rclavicle -5.00937e-014 -4.77083e-015
rhumerus -29.8603 29.4019 -94.8919
rradius 81.9391
rwrist -9.3233
rhand -10.3789 -27.7047
rfingers 7.12502
rthumb 15.6188 -57.0941
lclavicle -5.00937e-014 -4.77083e-015
lhumerus -69.6383 -18.7612 103.705
lradius 54.1428
lwrist 23.4515
lhand -21.118 -19.2171
lfingers 7.12502
lthumb 5.26045 10.6976
rfemur 4.72502 -3.23771 22.8853
rtibia 15.4093
rfoot -16.5544 2.16147
rtoes -7.17747
lfemur -29.0875 14.5636 -16.5387
ltibia 33.1896
lfoot -20.9079 18.3928
ltoes 22.6292
1194
root 36.7781 16.9622 16.2233 279.857 80.3435 268.497
lowerback 12.4986 5.23223 -4.26373
upperback 7.33099 6.87682 -3.40643
thorax 0.692338 3.5555 -1.97055
lowerneck -18.2246 11.1642 14.2893
upperneck 24.8417 17.4008 -16.708
head 14.5064 7.19315 -5.66718
rclavicle -3.81667e-014 -7.79236e-014
rhumerus -30.5436 28.2205 -95.2465
rradius 80.0583
rwrist -9.42834
rhand -9.35532 -28.3562
rfingers 7.12502
rthumb 16.6044 -57.6659
lclavicle -3.81667e-014 -7.79236e-014
lhumerus -67.6792 -18.1422 102.026
lradius 54.0166
lwrist 26.387
lhand -21.8736 -18.897
lfingers 7.12502
lthumb 4.5308 11.0345
rfemur 4.18195 -3.36247 23.1293
rtibia 15.453
rfoot -16.5449 2.62714
rtoes -6.39305
lfemur -28.821 14.5073 -16.2369
ltibia 33.0186
lfoot -20.9742 18.5679
ltoes 21.6999
